<?xml version="1.0" standalone="no"?>
<!DOCTYPE svg PUBLIC "-//W3C//DTD SVG 20010904//EN"
 "http://www.w3.org/TR/2001/REC-SVG-20010904/DTD/svg10.dtd">
<svg version="1.0" xmlns="http://www.w3.org/2000/svg"
 width="700.000000pt" height="700.000000pt" viewBox="0 0 700.000000 700.000000"
 preserveAspectRatio="xMidYMid meet">
<metadata>
Created by potrace 1.14, written by Peter Selinger 2001-2017
</metadata>
<g transform="translate(0.000000,700.000000) scale(0.100000,-0.100000)"
fill="#000000" stroke="none">
<path d="M180 3503 l0 -3348 3220 3220 3220 3220 0 -3153 c0 -1733 3 -3152 8
-3153 34 -4 85 -4 92 1 7 4 9 1210 8 3285 l-3 3278 -1627 -1627 -1627 -1627
-433 429 c-238 237 -551 546 -695 688 -242 240 -1436 1423 -1936 1918 -120
119 -220 216 -222 216 -3 0 -5 -1506 -5 -3347z m515 2691 c110 -108 567 -560
1015 -1004 448 -444 1011 -1001 1250 -1238 l434 -430 -1552 -1552 -1552 -1552
0 3088 0 3089 103 -102 c56 -56 192 -190 302 -299z"/>
</g>
</svg>
